<svg
                width="40"
                height="40"
                viewBox="0 0 42 41"
                fill="none"
                xmlns="http://www.w3.org/2000/svg"
              >
                <path
                  d="M35.2829 0.332031H6.8838C3.63944 0.332031 1 2.9351 1 6.13476V34.1426C1 37.3422 3.63944 39.9453 6.8838 39.9453H35.2829C38.5273 39.9453 41.1667 37.3422 41.1667 34.1426V6.13476C41.1667 2.9351 38.5273 0.332031 35.2829 0.332031ZM38.8132 34.1426C38.8132 36.0623 37.2295 37.6242 35.2829 37.6242H6.8838C4.93724 37.6242 3.35352 36.0623 3.35352 34.1426V6.13476C3.35352 4.21502 4.93724 2.65312 6.8838 2.65312H35.2829C37.2295 2.65312 38.8132 4.21502 38.8132 6.13476V34.1426Z"
                  fill="#070707"
                  stroke="#070707"
                  stroke-width="0.5"
                />
                <path
                  d="M31.3737 29.9013V22.23C31.3737 18.12 29.18 16.2075 26.2537 16.2075C23.8925 16.2075 22.835 17.5063 22.2462 18.4175V16.5213H17.7987C17.8575 17.7775 17.7987 29.9013 17.7987 29.9013H22.2462V22.4288C22.2462 22.03 22.275 21.63 22.3925 21.345C22.7137 20.5463 23.445 19.7188 24.6737 19.7188C26.2837 19.7188 26.9275 20.945 26.9275 22.7438V29.9025L31.3737 29.9013V29.9013ZM13.1125 14.695C14.6625 14.695 15.6287 13.6663 15.6287 12.3825C15.6 11.07 14.6625 10.0713 13.1412 10.0713C11.62 10.0713 10.6262 11.07 10.6262 12.3825C10.6262 13.6675 11.5912 14.695 13.085 14.695H13.1125ZM15.3362 29.9013V16.5213H10.89V29.9013H15.3362Z"
                  fill="black"
                />
              </svg>